<svg width="75" height="75" viewBox="0 0 75 75" fill="none" xmlns="http://www.w3.org/2000/svg">
<rect width="75" height="75" rx="4" fill="#1A1A1A"/>
<path d="M41.9801 37.8673C41.3283 38.0091 40.6538 38.0104 40.0016 37.871C39.3493 37.7317 38.7342 37.4549 38.1973 37.0592C37.9029 36.844 37.5476 36.7281 37.1829 36.7281C36.8182 36.7281 36.4629 36.844 36.1684 37.0592C35.632 37.4559 35.0169 37.7333 34.3645 37.8727C33.7121 38.0121 33.0374 38.0102 32.3857 37.8673C32.1345 37.8131 31.8744 37.8158 31.6245 37.8754C31.3746 37.9349 31.1411 38.0496 30.9414 38.2112C30.7441 38.3712 30.5848 38.5729 30.4748 38.8019C30.3648 39.0308 30.3069 39.2812 30.3052 39.5352V45.3296C30.3038 46.5626 30.5889 47.7791 31.1379 48.8831C31.687 49.9871 32.4849 50.9485 33.4689 51.6915L36.1684 53.6688C36.4629 53.884 36.8182 54 37.1829 54C37.5476 54 37.9029 53.884 38.1973 53.6688L40.8968 51.6743C41.8815 50.9358 42.6802 49.9778 43.2294 48.8763C43.7786 47.7749 44.0632 46.5604 44.0606 45.3296V39.5352C44.0589 39.2812 44.001 39.0308 43.891 38.8019C43.781 38.5729 43.6216 38.3712 43.4244 38.2112C43.2246 38.0496 42.9912 37.9349 42.7412 37.8754C42.4913 37.8158 42.2312 37.8131 41.9801 37.8673ZM40.6217 45.3296C40.6066 45.9942 40.4446 46.6472 40.1473 47.2417C39.85 47.8362 39.4248 48.3576 38.9023 48.7685L37.1829 50.0065L35.4634 48.7685C34.9409 48.3576 34.5157 47.8362 34.2185 47.2417C33.9212 46.6472 33.7592 45.9942 33.744 45.3296V41.4094C34.9466 41.3553 36.1218 41.0322 37.1829 40.4637C38.244 41.0322 39.4191 41.3553 40.6217 41.4094V45.3296Z" fill="#3F8CFF"/>
<path d="M48.2216 30.2331C47.171 27.8191 45.3579 25.816 43.06 24.531C40.7622 23.246 38.1063 22.7499 35.4995 23.1187C32.8927 23.4875 30.4788 24.7008 28.6275 26.5728C26.7762 28.4447 25.5899 30.8721 25.2501 33.4828C23.8096 33.8337 22.5211 34.6406 21.5765 35.7834C20.6319 36.9262 20.0819 38.3436 20.0085 39.8244C19.935 41.3052 20.342 42.7701 21.1688 44.0007C21.9957 45.2314 23.198 46.1619 24.5967 46.6536C24.7751 46.7085 24.9604 46.7375 25.147 46.7396C25.603 46.8125 26.0693 46.7014 26.4433 46.4305C26.8174 46.1596 27.0685 45.7513 27.1415 45.2953C27.2144 44.8392 27.1033 44.3729 26.8324 43.9989C26.5615 43.6248 26.1532 43.3737 25.6972 43.3007C25.0488 43.0667 24.4857 42.6432 24.081 42.0852C23.6763 41.5271 23.4486 40.8604 23.4275 40.1714C23.4275 39.2593 23.7898 38.3847 24.4347 37.7397C25.0797 37.0948 25.9543 36.7325 26.8664 36.7325C27.3224 36.7325 27.7597 36.5514 28.0822 36.2289C28.4046 35.9065 28.5858 35.4691 28.5858 35.0131C28.5902 32.9795 29.3153 31.0133 30.6324 29.4638C31.9494 27.9143 33.7731 26.8819 35.7794 26.5499C37.7857 26.2179 39.8448 26.6079 41.5908 27.6506C43.3367 28.6932 44.6566 30.321 45.3158 32.2448C45.4141 32.5403 45.5907 32.8035 45.8269 33.0064C46.0631 33.2093 46.35 33.3443 46.6569 33.3969C47.6909 33.584 48.643 34.0824 49.386 34.8255C50.1289 35.5685 50.6272 36.5208 50.8142 37.5548C51.0011 38.5887 50.8679 39.6552 50.4322 40.6114C49.9966 41.5675 49.2793 42.3679 48.3763 42.9053C47.9796 43.1333 47.6897 43.5095 47.5704 43.9513C47.4511 44.3931 47.5121 44.8641 47.7402 45.2609C47.9682 45.6576 48.3444 45.9475 48.7862 46.0668C49.228 46.1861 49.699 46.1251 50.0958 45.8971C51.3995 45.1403 52.4813 44.0542 53.2327 42.7474C53.9842 41.4407 54.3788 39.9593 54.3771 38.452C54.3719 36.6021 53.7701 34.8032 52.6612 33.3226C51.5523 31.8419 49.9953 30.7585 48.2216 30.2331Z" fill="#3F8CFF"/>
</svg>
