<svg width="75" height="75" viewBox="0 0 75 75" fill="none" xmlns="http://www.w3.org/2000/svg">
<rect width="75" height="75" rx="4" fill="#1A1A1A"/>
<path d="M40.5423 53C40.3519 52.9999 40.1637 52.9598 39.99 52.8821C37.4845 51.7738 35.4246 49.8552 34.1413 47.4347C34.0081 48.6074 34.0955 49.7947 34.3989 50.9352C34.4427 51.0723 34.4655 51.2152 34.4664 51.359C34.4666 51.5814 34.412 51.8005 34.3074 51.9968C34.2029 52.1931 34.0517 52.3607 33.8671 52.4848C33.6825 52.6089 33.4702 52.6856 33.2489 52.7083C33.0277 52.7309 32.8042 52.6987 32.5983 52.6146C30.8447 51.9023 29.2812 50.7911 28.0317 49.3694C26.7823 47.9476 25.8813 46.2542 25.4002 44.4236C24.919 42.593 24.8711 40.6755 25.26 38.8231C25.649 36.9708 26.4641 35.2345 27.6409 33.752C28.3979 32.7709 29.308 31.9181 30.3361 31.2263L30.6487 30.972C31.6319 30.1397 32.4359 29.1165 33.012 27.9643C33.5881 26.8121 33.9243 25.555 34.0002 24.2691C34.015 24.0398 34.0878 23.818 34.2117 23.6245C34.3357 23.431 34.5068 23.2723 34.709 23.163C34.9111 23.0538 35.1377 22.9977 35.3675 23.0001C35.5973 23.0024 35.8227 23.0631 36.0226 23.1764C38.1411 24.3839 39.8344 26.217 40.8704 28.4244C41.9064 30.6319 42.2345 33.1057 41.8097 35.5069C42.5942 34.836 43.2385 34.0169 43.7057 33.0964C43.7892 32.9309 43.9058 32.7843 44.0483 32.6656C44.1907 32.5469 44.356 32.4587 44.5338 32.4065C44.7117 32.3542 44.8984 32.339 45.0824 32.3618C45.2664 32.3845 45.4438 32.4448 45.6036 32.5388C45.7165 32.6054 45.8212 32.685 45.9155 32.7759C47.3732 34.2597 48.4272 36.0917 48.9775 38.0976C49.5277 40.1035 49.5559 42.2169 49.0593 44.2368C48.5628 46.2567 47.558 48.116 46.1404 49.6382C44.7229 51.1604 42.9396 52.2949 40.9602 52.9338C40.8252 52.9774 40.6842 52.9998 40.5423 53Z" fill="#3F8CFF"/>
</svg>
