<svg width="75" height="75" viewBox="0 0 75 75" fill="none" xmlns="http://www.w3.org/2000/svg">
<rect width="75" height="75" rx="4" fill="#1A1A1A"/>
<path d="M31.9991 53C31.769 53.0001 31.542 52.9472 31.3356 52.8455C31.1293 52.7437 30.9491 52.5958 30.8091 52.4133C30.6691 52.2307 30.573 52.0183 30.5282 51.7926C30.4835 51.567 30.4913 51.334 30.5511 51.1118L33.2603 41H27.4998C27.2697 41 27.0428 40.947 26.8365 40.8452C26.6301 40.7434 26.45 40.5956 26.31 40.4131C26.1699 40.2305 26.0737 40.0182 26.0288 39.7926C25.9839 39.567 25.9916 39.334 26.0511 39.1118L30.0706 24.1118C30.1559 23.7928 30.3442 23.5109 30.6062 23.3099C30.8681 23.1089 31.1891 22.9999 31.5193 23H42.0193C42.2494 23.0001 42.4764 23.053 42.6827 23.1548C42.889 23.2566 43.0691 23.4044 43.2092 23.587C43.3492 23.7695 43.4454 23.9818 43.4903 24.2074C43.5352 24.433 43.5276 24.666 43.4681 24.8882L41.5623 32H48.3636C48.6542 32 48.9386 32.0844 49.1821 32.243C49.4256 32.4016 49.6178 32.6276 49.7354 32.8934C49.8529 33.1591 49.8907 33.4534 49.8442 33.7402C49.7976 34.0271 49.6687 34.2943 49.4732 34.5093L33.1094 52.5093C32.9688 52.664 32.7974 52.7875 32.6061 52.8721C32.4149 52.9566 32.2081 53.0001 31.9991 53Z" fill="#3F8CFF"/>
</svg>
