<svg width="75" height="75" viewBox="0 0 75 75" fill="none" xmlns="http://www.w3.org/2000/svg">
<rect width="75" height="75" rx="4" fill="#1A1A1A"/>
<mask id="path-2-outside-1" maskUnits="userSpaceOnUse" x="20" y="21" width="34" height="34" fill="black">
<rect fill="white" x="20" y="21" width="34" height="34"/>
<path d="M53 43.6562C53 38.9919 49.8572 34.9167 45.4253 33.6887C45.1467 27.1963 39.7786 22 33.2188 22C26.4812 22 21 27.4812 21 34.2188C21 36.4146 21.5845 38.5525 22.6943 40.4294L21.0449 46.3923L27.0081 44.7432C28.7334 45.7634 30.6797 46.3381 32.6885 46.4248C33.9163 50.8569 37.9917 54 42.6562 54C44.5181 54 46.3286 53.5042 47.9194 52.562L52.9548 53.9548L51.562 48.9194C52.5042 47.3286 53 45.5181 53 43.6562ZM27.304 42.7158L23.7341 43.7034L24.7217 40.1335L24.4966 39.7815C23.4358 38.1218 22.875 36.1982 22.875 34.2188C22.875 28.5151 27.5151 23.875 33.2188 23.875C38.9224 23.875 43.5625 28.5151 43.5625 34.2188C43.5625 39.9224 38.9224 44.5625 33.2188 44.5625C31.2393 44.5625 29.3159 44.0017 27.656 42.9409L27.304 42.7158ZM50.2659 51.2659L47.6169 50.533L47.2632 50.7632C45.8918 51.6541 44.2986 52.125 42.6562 52.125C38.9902 52.125 35.7688 49.7546 34.6274 46.3557C40.2412 45.7085 44.7085 41.2412 45.356 35.6272C48.7546 36.7688 51.125 39.9902 51.125 43.6562C51.125 45.2986 50.6541 46.8918 49.7632 48.2632L49.533 48.6169L50.2659 51.2659Z"/>
</mask>
<path d="M53 43.6562C53 38.9919 49.8572 34.9167 45.4253 33.6887C45.1467 27.1963 39.7786 22 33.2188 22C26.4812 22 21 27.4812 21 34.2188C21 36.4146 21.5845 38.5525 22.6943 40.4294L21.0449 46.3923L27.0081 44.7432C28.7334 45.7634 30.6797 46.3381 32.6885 46.4248C33.9163 50.8569 37.9917 54 42.6562 54C44.5181 54 46.3286 53.5042 47.9194 52.562L52.9548 53.9548L51.562 48.9194C52.5042 47.3286 53 45.5181 53 43.6562ZM27.304 42.7158L23.7341 43.7034L24.7217 40.1335L24.4966 39.7815C23.4358 38.1218 22.875 36.1982 22.875 34.2188C22.875 28.5151 27.5151 23.875 33.2188 23.875C38.9224 23.875 43.5625 28.5151 43.5625 34.2188C43.5625 39.9224 38.9224 44.5625 33.2188 44.5625C31.2393 44.5625 29.3159 44.0017 27.656 42.9409L27.304 42.7158ZM50.2659 51.2659L47.6169 50.533L47.2632 50.7632C45.8918 51.6541 44.2986 52.125 42.6562 52.125C38.9902 52.125 35.7688 49.7546 34.6274 46.3557C40.2412 45.7085 44.7085 41.2412 45.356 35.6272C48.7546 36.7688 51.125 39.9902 51.125 43.6562C51.125 45.2986 50.6541 46.8918 49.7632 48.2632L49.533 48.6169L50.2659 51.2659Z" fill="#3F8CFF"/>
<path d="M53 43.6562C53 38.9919 49.8572 34.9167 45.4253 33.6887C45.1467 27.1963 39.7786 22 33.2188 22C26.4812 22 21 27.4812 21 34.2188C21 36.4146 21.5845 38.5525 22.6943 40.4294L21.0449 46.3923L27.0081 44.7432C28.7334 45.7634 30.6797 46.3381 32.6885 46.4248C33.9163 50.8569 37.9917 54 42.6562 54C44.5181 54 46.3286 53.5042 47.9194 52.562L52.9548 53.9548L51.562 48.9194C52.5042 47.3286 53 45.5181 53 43.6562ZM27.304 42.7158L23.7341 43.7034L24.7217 40.1335L24.4966 39.7815C23.4358 38.1218 22.875 36.1982 22.875 34.2188C22.875 28.5151 27.5151 23.875 33.2188 23.875C38.9224 23.875 43.5625 28.5151 43.5625 34.2188C43.5625 39.9224 38.9224 44.5625 33.2188 44.5625C31.2393 44.5625 29.3159 44.0017 27.656 42.9409L27.304 42.7158ZM50.2659 51.2659L47.6169 50.533L47.2632 50.7632C45.8918 51.6541 44.2986 52.125 42.6562 52.125C38.9902 52.125 35.7688 49.7546 34.6274 46.3557C40.2412 45.7085 44.7085 41.2412 45.356 35.6272C48.7546 36.7688 51.125 39.9902 51.125 43.6562C51.125 45.2986 50.6541 46.8918 49.7632 48.2632L49.533 48.6169L50.2659 51.2659Z" stroke="#3F8CFF" stroke-width="0.4" mask="url(#path-2-outside-1)"/>
<mask id="path-3-outside-2" maskUnits="userSpaceOnUse" x="31.2812" y="37.9375" width="4" height="4" fill="black">
<rect fill="white" x="31.2812" y="37.9375" width="4" height="4"/>
<path d="M32.2812 38.9375H34.1562V40.8125H32.2812V38.9375Z"/>
</mask>
<path d="M32.2812 38.9375H34.1562V40.8125H32.2812V38.9375Z" fill="#3F8CFF"/>
<path d="M32.2812 38.9375H34.1562V40.8125H32.2812V38.9375Z" stroke="#3F8CFF" stroke-width="0.4" mask="url(#path-3-outside-2)"/>
<mask id="path-4-outside-3" maskUnits="userSpaceOnUse" x="28.4688" y="26.625" width="9" height="11" fill="black">
<rect fill="white" x="28.4688" y="26.625" width="9" height="11"/>
<path d="M35.0938 31.375C35.0938 31.9075 34.877 32.3989 34.4834 32.759L32.2812 34.7747V37.0625H34.1562V35.6003L35.7493 34.1423C36.5242 33.4331 36.9688 32.4246 36.9688 31.375C36.9688 29.3071 35.2866 27.625 33.2188 27.625C31.1509 27.625 29.4688 29.3071 29.4688 31.375H31.3438C31.3438 30.3411 32.1848 29.5 33.2188 29.5C34.2527 29.5 35.0938 30.3411 35.0938 31.375Z"/>
</mask>
<path d="M35.0938 31.375C35.0938 31.9075 34.877 32.3989 34.4834 32.759L32.2812 34.7747V37.0625H34.1562V35.6003L35.7493 34.1423C36.5242 33.4331 36.9688 32.4246 36.9688 31.375C36.9688 29.3071 35.2866 27.625 33.2188 27.625C31.1509 27.625 29.4688 29.3071 29.4688 31.375H31.3438C31.3438 30.3411 32.1848 29.5 33.2188 29.5C34.2527 29.5 35.0938 30.3411 35.0938 31.375Z" fill="#3F8CFF"/>
<path d="M35.0938 31.375C35.0938 31.9075 34.877 32.3989 34.4834 32.759L32.2812 34.7747V37.0625H34.1562V35.6003L35.7493 34.1423C36.5242 33.4331 36.9688 32.4246 36.9688 31.375C36.9688 29.3071 35.2866 27.625 33.2188 27.625C31.1509 27.625 29.4688 29.3071 29.4688 31.375H31.3438C31.3438 30.3411 32.1848 29.5 33.2188 29.5C34.2527 29.5 35.0938 30.3411 35.0938 31.375Z" stroke="#3F8CFF" stroke-width="0.4" mask="url(#path-4-outside-3)"/>
</svg>
