<svg width="75" height="75" viewBox="0 0 75 75" fill="none" xmlns="http://www.w3.org/2000/svg">
<rect width="75" height="75" rx="4" fill="#1A1A1A"/>
<path d="M46.4766 52.9999C46.2213 52.9999 45.9699 52.9377 45.744 52.8187L37.728 48.6041L29.7119 52.8187C29.4522 52.9554 29.1595 53.0166 28.8667 52.9956C28.574 52.9745 28.293 52.872 28.0556 52.6995C27.8181 52.5271 27.6336 52.2917 27.523 52.0198C27.4123 51.748 27.38 51.4507 27.4295 51.1614L28.9609 42.2346L22.4746 35.9126C22.2645 35.7078 22.116 35.4483 22.0457 35.1634C21.9755 34.8785 21.9864 34.5796 22.0771 34.3006C22.1679 34.0215 22.3349 33.7735 22.5594 33.5844C22.7838 33.3954 23.0567 33.2729 23.3471 33.2309L32.3092 31.9284L36.318 23.8064C36.4625 23.5609 36.6686 23.3573 36.9159 23.2158C37.1632 23.0744 37.4431 23 37.728 23C38.0129 23 38.2929 23.0744 38.5402 23.2158C38.7875 23.3573 38.9936 23.5609 39.138 23.8064L43.1468 31.9284L52.109 33.2309C52.3994 33.2729 52.6723 33.3954 52.8967 33.5844C53.1211 33.7735 53.2882 34.0215 53.3789 34.3006C53.4697 34.5796 53.4806 34.8785 53.4103 35.1634C53.3401 35.4483 53.1915 35.7078 52.9814 35.9126L46.4952 42.2346L48.0265 51.1614C48.0652 51.3871 48.0541 51.6185 47.994 51.8395C47.9339 52.0605 47.8264 52.2656 47.6788 52.4407C47.5312 52.6158 47.3472 52.7566 47.1396 52.8532C46.9319 52.9498 46.7057 52.9999 46.4768 53L46.4766 52.9999Z" fill="#3F8CFF"/>
</svg>
