<svg width="486" height="340" viewBox="0 0 486 340" fill="none" xmlns="http://www.w3.org/2000/svg">
<path d="M46 268.5C-2.89175 310.458 -109 212 -109 212V127.5L-32.5 -128L408.5 -101.5C408.5 -101.5 392.64 -14.0744 356.5 25.5C311.07 75.2477 222.284 27.7592 196.5 90C182.675 123.373 217.423 153.053 196.5 182.5C169.735 220.171 113.111 165.324 79 196.5C56.1688 217.367 69.472 248.357 46 268.5Z" stroke="white" stroke-opacity="0.15" stroke-linecap="round" stroke-linejoin="round"/>
<path d="M68.913 327.055C12.7938 375.21 -109 262.211 -109 262.211V165.232L-21.1913 -128L485 -97.5865C485 -97.5865 466.795 2.75021 425.313 48.169C373.167 105.263 271.256 50.7619 241.661 122.194C225.792 160.496 265.676 194.559 241.661 228.355C210.939 271.589 145.944 208.642 106.791 244.422C80.5851 268.371 95.8549 303.937 68.913 327.055Z" stroke="white" stroke-opacity="0.15" stroke-linecap="round" stroke-linejoin="round"/>
<path d="M25.4831 215.971C-16.937 252.371 -109 166.956 -109 166.956V93.6511L-42.6261 -128L340 -105.011C340 -105.011 326.239 -29.1674 294.883 5.16414C255.467 48.3212 178.433 7.12408 156.062 61.1191C144.067 90.071 174.215 115.818 156.062 141.365C132.839 174.045 83.7105 126.464 54.115 153.51C34.3059 171.612 45.8482 198.497 25.4831 215.971Z" stroke="white" stroke-opacity="0.15" stroke-linecap="round" stroke-linejoin="round"/>
<path d="M9.30918 175.045C-28.0092 207.114 -109 131.862 -109 131.862V67.279L-50.6087 -128L286 -107.746C286 -107.746 273.894 -40.9265 246.309 -10.6797C211.633 27.3425 143.864 -8.953 124.184 38.6177C113.631 64.1249 140.153 86.8088 124.184 109.316C103.754 138.107 60.5337 96.188 34.4976 120.016C17.0709 135.964 27.2251 159.65 9.30918 175.045Z" stroke="white" stroke-opacity="0.15" stroke-linecap="round" stroke-linejoin="round"/>
<path d="M-7.16425 133.145C-39.2864 160.78 -109 95.9329 -109 95.9329V40.279L-58.7391 -128L231 -110.546C231 -110.546 220.58 -52.9656 196.836 -26.9009C166.988 5.86426 108.655 -25.4129 91.715 15.5805C82.6318 37.561 105.461 57.1086 91.715 76.5034C74.1301 101.314 36.9277 65.1909 14.5169 85.7242C-0.483276 99.4677 8.257 119.878 -7.16425 133.145Z" stroke="white" stroke-opacity="0.15" stroke-linecap="round" stroke-linejoin="round"/>
<path d="M-20.0435 100.015C-48.1031 124.144 -109 67.5235 -109 67.5235V18.9302L-65.0957 -128L188 -112.761C188 -112.761 178.898 -62.4849 158.157 -39.7269C132.084 -11.1185 81.1281 -38.4277 66.3304 -2.63493C58.396 16.557 78.3382 33.6246 66.3304 50.559C50.9695 72.2223 18.4722 40.6816 -1.10435 58.6099C-14.2075 70.6098 -6.57256 88.4311 -20.0435 100.015Z" stroke="white" stroke-opacity="0.15" stroke-linecap="round" stroke-linejoin="round"/>
<path d="M-34.4251 68.7822C-58.8946 89.8176 -112 40.4564 -112 40.4564V-1.90703L-73.713 -130L147 -116.714C147 -116.714 139.062 -72.8843 120.975 -53.0439C98.238 -28.1033 53.8019 -51.9113 40.8976 -20.7074C33.9783 -3.97595 51.369 10.9035 40.8976 25.6668C27.502 44.5528 -0.837395 17.0558 -17.9092 32.6856C-29.3358 43.1471 -22.6778 58.6835 -34.4251 68.7822Z" stroke="white" stroke-opacity="0.15" stroke-linecap="round" stroke-linejoin="round"/>
</svg>
