<svg width="134" height="43" viewBox="0 0 134 43" fill="none" xmlns="http://www.w3.org/2000/svg">
<path d="M19.5968 0.0457816C19.6528 0.070569 19.698 0.114651 19.7244 0.169922C21.2915 3.44682 23.482 6.4737 26.2958 9.05163C29.6111 12.0889 33.3758 14.2619 37.3341 15.5705C38.2999 15.8898 38.9867 16.7715 38.9867 17.7887C38.9867 19.1311 37.814 20.1806 36.4993 19.9091C31.4934 18.8755 26.6818 16.4783 22.5768 12.7175C20.0392 10.3927 18.0239 7.69082 16.5309 4.76708C15.7243 3.18747 16.5206 1.31521 18.1426 0.597623L19.3899 0.0457818C19.4558 0.0166405 19.5309 0.0166405 19.5968 0.0457816Z" fill="white"/>
<path d="M29.5786 4.46187C26.7024 3.18939 24.7496 6.06642 26.8597 8.39871C27.0174 8.57304 26.9687 8.48351 27.1613 8.61842C28.1628 9.32024 31.6442 11.7146 34.9673 13.4596C36.9171 14.4835 38.9867 12.9974 38.9867 10.7951C38.9867 9.4753 38.2082 8.27973 37.0013 7.74577L29.5786 4.46187Z" fill="white"/>
<path d="M21.9958 13.3516C19.2004 10.7906 17.0203 7.78658 15.4554 4.53448C14.8629 3.30314 13.4133 2.68992 12.1636 3.24278C11.0679 3.72753 10.4918 4.95424 10.9124 6.07615C12.4388 10.1483 14.8936 13.918 18.2768 17.0175C23.2669 21.5893 29.3013 24.146 35.4594 24.6875C37.3513 24.8539 38.9867 23.4268 38.9867 21.5276C38.9867 21.3265 38.8356 21.1578 38.636 21.133C32.6612 20.3901 26.8472 17.7963 21.9958 13.3516Z" fill="white"/>
<path d="M7.09337 5.48592C8.34677 4.9314 9.79625 5.60593 10.3003 6.88046C11.8833 10.8829 14.3485 14.5849 17.6958 17.6516C23.0709 22.576 29.6275 25.2285 36.2754 25.6089C37.4441 25.6758 38.335 26.7554 37.9481 27.8603C37.7358 28.4663 37.1894 28.8821 36.5506 28.9477C28.6062 29.7647 20.4208 27.2213 13.9768 21.3175C9.95303 17.6312 7.24249 12.9967 5.84515 8.03298C5.5528 6.99446 6.10673 5.92242 7.09337 5.48592Z" fill="white"/>
<path d="M13.3958 21.9516C9.48397 18.3678 6.77694 13.9162 5.27473 9.13151C4.86729 7.83376 3.43462 7.10459 2.1907 7.65491C1.31294 8.04325 0.790194 8.96734 0.971841 9.90983C2.10286 15.7781 5.0045 21.337 9.67677 25.6175C16.7937 32.1377 26.0346 34.5592 34.7292 32.8819C35.1093 32.8086 35.4526 32.5861 35.6749 32.2692C36.4041 31.2294 35.4993 29.9256 34.2295 29.9509C26.8234 30.0986 19.3779 27.4321 13.3958 21.9516Z" fill="white"/>
<path d="M4.79582 30.5516C3.72029 29.5663 2.18255 30.4254 2.98667 31.6424C6.01394 36.224 11.3203 39.9319 18.8043 42.747L18.833 42.7575C19.2593 42.9141 19.7274 42.9141 20.1537 42.7575C22.4838 41.9224 21.5609 38.4533 19.1366 37.9538C13.9792 36.8911 9.02226 34.4237 4.79582 30.5516Z" fill="white"/>
<path d="M0 21.5276C0 20.2792 3.67143 19.5852 4.34927 20.6337C5.66131 22.663 7.2435 24.5546 9.09583 26.2516C15.1277 31.7778 22.6475 34.4428 30.1145 34.2466C31.5876 34.2079 32.4767 35.908 31.3255 36.828C31.1418 36.9749 30.9133 37.0852 30.6827 37.1318C21.9146 38.9059 12.5629 36.5011 5.37677 29.9175C3.70656 28.3873 2.26261 26.6938 1.04492 24.8812C0.377717 23.888 0 22.7241 0 21.5276Z" fill="white"/>
<path d="M58.2042 29.5996H55.9163L50.9868 15.04H53.8571L57.0395 25.1277L60.1178 15.04H62.4057L65.5048 25.1277L68.6664 15.04H71.5159L66.5864 29.5996H64.3193L61.2618 19.8654L58.2042 29.5996Z" fill="white"/>
<path d="M82.1108 25.1485H73.5206C73.7147 25.8557 74.0961 26.4311 74.6646 26.8749C75.247 27.3047 75.9195 27.5197 76.6821 27.5197C77.7498 27.5197 78.5957 27.1383 79.2197 26.3757L81.7364 27.1037C81.2372 27.9772 80.537 28.6636 79.6356 29.1628C78.7482 29.662 77.7637 29.9116 76.6821 29.9116C75.0182 29.9116 73.6246 29.3708 72.5014 28.2892C71.3921 27.1799 70.8375 25.8141 70.8375 24.1917C70.8375 22.5555 71.3783 21.1966 72.4598 20.115C73.5553 19.0196 74.9072 18.4719 76.5157 18.4719C78.1242 18.4719 79.4692 19.0196 80.5508 20.115C81.6463 21.2105 82.194 22.5694 82.194 24.1917C82.194 24.4552 82.1662 24.7741 82.1108 25.1485ZM73.5414 23.131H79.5108C79.3029 22.4515 78.9215 21.9038 78.3669 21.4878C77.8122 21.0718 77.1813 20.8638 76.4741 20.8638C75.7947 20.8638 75.1846 21.0718 74.6438 21.4878C74.103 21.9038 73.7355 22.4515 73.5414 23.131Z" fill="white"/>
<path d="M86.6743 29.5996H84.0743V14H86.6743V29.5996Z" fill="white"/>
<path d="M91.4882 29.5996H88.8883V14H91.4882V29.5996Z" fill="white"/>
<path d="M100.706 29.5996H98.4178L93.4883 15.0399H96.3586L99.5409 25.1277L102.619 15.0399H104.907L108.006 25.1277L111.168 15.0399H114.017L109.088 29.5996H106.821L103.763 19.8654L100.706 29.5996Z" fill="white"/>
<path d="M118.486 18.4719C119.706 18.4719 120.801 18.8601 121.772 19.6367V18.7839H124.351V29.5996H121.772V28.7468C120.801 29.5233 119.706 29.9116 118.486 29.9116C117.002 29.9116 115.747 29.3708 114.721 28.2892C113.723 27.1938 113.223 25.828 113.223 24.1917C113.223 22.5555 113.723 21.1966 114.721 20.115C115.733 19.0196 116.988 18.4719 118.486 18.4719ZM120.878 21.9662C120.323 21.3699 119.637 21.0718 118.818 21.0718C117.986 21.0718 117.293 21.3699 116.739 21.9662C116.184 22.5624 115.907 23.3043 115.907 24.1917C115.907 25.0792 116.184 25.821 116.739 26.4173C117.293 27.0135 117.986 27.3117 118.818 27.3117C119.637 27.3117 120.323 27.0135 120.878 26.4173C121.446 25.8072 121.73 25.0653 121.73 24.1917C121.73 23.3182 121.446 22.5763 120.878 21.9662Z" fill="white"/>
<path d="M129.157 29.5996H126.557V14H129.157V29.5996Z" fill="white"/>
<path d="M133.971 29.5996H131.371V14H133.971V29.5996Z" fill="white"/>
</svg>
