<svg width="15" height="19" viewBox="0 0 15 19" fill="none" xmlns="http://www.w3.org/2000/svg">
<path d="M7.5 10C6.51109 10 5.54439 9.70676 4.72215 9.15735C3.8999 8.60794 3.25904 7.82705 2.8806 6.91342C2.50216 5.99979 2.40315 4.99446 2.59607 4.02455C2.789 3.05465 3.2652 2.16373 3.96447 1.46447C4.66373 0.765206 5.55464 0.289002 6.52455 0.0960758C7.49445 -0.0968503 8.49979 0.00216643 9.41342 0.380605C10.327 0.759043 11.1079 1.39991 11.6573 2.22215C12.2068 3.0444 12.5 4.0111 12.5 5C12.5 6.32608 11.9732 7.59785 11.0355 8.53554C10.0979 9.47322 8.82608 10 7.5 10ZM7.5 1.66667C6.84073 1.66667 6.19626 1.86217 5.6481 2.22844C5.09994 2.59471 4.67269 3.1153 4.4204 3.72439C4.16811 4.33348 4.1021 5.0037 4.23072 5.6503C4.35933 6.29691 4.6768 6.89085 5.14298 7.35703C5.60915 7.8232 6.2031 8.14067 6.8497 8.26929C7.4963 8.3979 8.16652 8.33189 8.77561 8.0796C9.3847 7.82731 9.90529 7.40007 10.2716 6.8519C10.6378 6.30374 10.8333 5.65927 10.8333 5C10.8333 4.11595 10.4821 3.2681 9.85702 2.64298C9.2319 2.01786 8.38406 1.66667 7.5 1.66667ZM15 15.8333C15 14.7283 14.561 13.6685 13.7796 12.8871C12.9982 12.1057 11.9384 11.6667 10.8333 11.6667H4.16667C3.0616 11.6667 2.00179 12.1057 1.22039 12.8871C0.438987 13.6685 0 14.7283 0 15.8333V17.5C0 17.9602 0.373096 18.3333 0.833333 18.3333C1.29357 18.3333 1.66667 17.9602 1.66667 17.5V15.8333C1.66667 15.1703 1.93006 14.5344 2.3989 14.0656C2.86774 13.5967 3.50363 13.3333 4.16667 13.3333H10.8333C11.4964 13.3333 12.1323 13.5967 12.6011 14.0656C13.0699 14.5344 13.3333 15.1703 13.3333 15.8333V17.5C13.3333 17.9602 13.7064 18.3333 14.1667 18.3333C14.6269 18.3333 15 17.9602 15 17.5V15.8333Z" fill="white"/>
</svg>
